<?xml version="1.0" encoding="utf-8"?>
<!-- Generator: Adobe Illustrator 26.5.3, SVG Export Plug-In . SVG Version: 6.00 Build 0)  -->
<svg version="1.1" id="Layer_1" xmlns="http://www.w3.org/2000/svg" xmlns:xlink="http://www.w3.org/1999/xlink" x="0px" y="0px"
	 viewBox="0 0 1661 2500" style="enable-background:new 0 0 1661 2500;" xml:space="preserve">
<style type="text/css">
	.st0{fill:#14274A;}
	.st1{fill:#EA4B36;}
</style>
<path class="st0" d="M1661,705.4V57.3H0v648.1h371.8v1089.2H0v648.2h1661v-648.2h-369.4V705.4H1661z"/>
<path class="st1" d="M1566.9,611.3V151.4H94.1v460h283.8c48.5,0,87.9,39.4,87.9,87.9v1101.6c0,48.5-39.4,87.9-87.9,87.9H94.1v460
	h1472.8v-460h-281.5c-48.5,0-87.9-39.4-87.9-87.9V699.2c0-48.5,39.4-87.9,87.9-87.9L1566.9,611.3z"/>
<text transform="matrix(1 0 0 1 1707.4866 2438.7288)" style="font-family:'ArialMT'; font-size:54.2777px;">TM</text>
</svg>
