<?xml version="1.0" encoding="UTF-8"?>
<svg width="1200pt" height="1200pt" version="1.1" viewBox="0 0 1200 1200" xmlns="http://www.w3.org/2000/svg">
 <path d="m603.38 18.996c-271.74 5.2773-278.71 83.855-291.75 90.375-39.023 13.195-48.633 80.922-60.75 122.62-13.656 29.176-18.812 62.559-37.125 89.25-33.211 10.242-78.113-2.1758-103.88 27-13.348 13.348-22.254 31.383-22.875 50.625-0.62109 41.902 4.2656 83.285 6.75 124.88 2.793 33.211 3.6719 68.207 19.5 98.625 10.555 21.727 21.723 43.887 36 63.75 26.07 26.07 63.215 33.93 94.875 51 13.969 8.6914 34.355 12.93 40.875 30 23.898 54.316 46.277 109.31 68.625 164.25 6.5195 14.898 14.273 30.387 27 41.25 18.312 13.348 22.746 36.32 31.125 55.875 18.312 46.246 35.973 92.734 59.25 136.5 20.176 26.383 56.828 25.5 86.625 25.5 53.074-1.5508 106.92 3.6875 159.38-5.625 20.484-0.92969 35.172-17.621 42-35.625 19.863-53.695 35.945-108.37 55.5-162.38 9.3125-17.691 24.117-32.066 31.875-51 23.898-54.629 45.438-110.43 72.75-163.5 8.3789-14.898 27.035-17.727 41.625-23.625 29.797-11.793 62.492-19.008 88.875-38.25 17.07-21.105 30.207-45.23 42-69.75 17.691-35.383 18.711-76.328 22.125-115.12 2.793-38.176 8.8047-75.887 7.875-114.38-3.4141-28.555-19.883-58.938-48.75-68.25-25.141-13.348-58.277-3.5039-80.625-22.125-9.9336-27.312-16.641-56.312-28.125-83.625-10.555-23.277-4.125-50.352-13.125-74.25-5.5859-14.59-12.543-28.473-18.75-42.75-20.484-5.2773-49.996-93.18-328.88-101.25zm346.5 236.62c8.6914 22.656 16.02 45.914 19.125 70.125-10.555-19.555-17.379-40.887-27-60.75 2.793-3.1055 5.082-6.2695 7.875-9.375zm-331.5 2.625c37.441-0.11719 74.906 4.7188 111.38 13.875 8.3789 19.863 18.695 39.062 29.25 57.375-92.492-5.8984-185.38-0.24609-277.88 0.375 6.8281-19.242 14.52-38.738 26.625-55.5 36.004-10.863 73.184-16.008 110.62-16.125zm-358.88 7.875c11.484 23.898-8.082 47.883-19.875 67.125 2.793-23.277 11.184-45.398 19.875-67.125zm495.38 11.625c28.867 9 56.879 20.57 85.125 31.125 10.242 3.4141 21.453 6.9844 32.625 4.5 22.348-2.1719 36.488-21.09 53.25-34.125 6.5195 15.52 12.723 31.484 18 47.625-53.074 0-106.36 0.33594-159.75 3.75-9.6211-17.691-19.938-35.184-29.25-52.875zm-277.12 3c-7.7578 16.762-16.254 33.359-25.875 49.5-61.145 0-122.61 0.24609-183.75-0.375 5.2773-13.348 11.223-26.777 16.5-40.125 14.898 12.105 29.391 28.137 49.875 30 18.004-0.92969 34.305-10.281 51.375-14.625 30.727-8.0703 61.77-14.133 91.875-24.375zm-282.75 67.125c3.1055 12.105 10.113 24.09 8.25 37.125-5.8984 44.695-7.9648 89.996-3 135 1.5508 14.59-0.90625 29.156-5.25 43.125 15.828 17.383 29.664 36.656 35.25 59.625 7.1406 20.797 3.2578 43.082 4.5 64.5 8.0703 3.4141 16.242 7.2148 24 11.25-31.348-4.3438-70.496-3.2695-88.5-33.375-21.418-33.832-43.008-70.094-44.25-111.38-4.3438-55.246-12.402-110.94-7.125-166.5 5.2773-13.969 11.547-31.41 27.375-36.375 16.141-1.5508 32.301-2.6914 48.75-3zm781.12 5.625c20.797 60.215 19.785 126.11 6.75 187.88h-9.375c12.727-61.766 12.867-125.8 2.625-187.88zm31.875 2.25c23.898 1.5508 52.859-1.7852 69 20.25 22.969 29.484 12.363 70.922 10.5 105.38-7.7578 56.488-0.47266 118.78-33.375 168.75-14.59 21.727-23.465 56.625-55.125 56.625-19.555 3.7227-39.32 6.0234-58.875 9.75 8.0703-12.414 22.668-20.094 28.875-33.75 5.8984-18.621 1.5391-39.191 7.125-58.125 4.6562-16.449 11.703-32.402 22.875-45.75 6.5195-9 16.527-19.395 11.25-31.5-8.6914-24.832 0.50391-50.984 1.125-76.125 2.1719-38.488-3.9961-77.012-3.375-115.5zm-54.375 0.375c10.555 59.594 14.703 121.09-1.125 180.38-28.867-9.9336-59.582-13.992-90-12.75-22.969 3.7266-38.48 28.047-63 25.875-131.29 3.7266-262.83 7.332-394.12 1.125-23.59 5.5859-30.891-22.836-51.375-26.25-32.59-3.7227-68.945-6.4297-97.5 13.125-10.863-58.043-11.91-117.77 1.125-175.5 114.53-2.793 228.97 0.91797 343.5-1.875 117.32-5.5859 234.86 1.4609 352.5-4.125zm-716.62 4.875c-11.172 61.457-13.84 125.23 0.75 186.38h-12.375c-9-61.766-11.277-124.48 3-185.62 2.1719-0.30859 6.4531-0.44141 8.625-0.75zm559.12 217.5c2.793 0 8.082 0.375 10.875 0.375-13.348 27.312-26.043 55.305-41.25 81.375 7.7578-28.246 20.754-54.438 30.375-81.75zm-397.12 3c14.277 0 28.848 0.066406 43.125 0.375 16.449 49.973 38.082 98.477 49.875 150-47.488-38.176-61.961-100.4-93-150.38zm67.5 0c42.211 1.2422 84.164 3.75 126.38 3.75-13.656 41.281-31.73 80.465-47.25 121.12-4.0352 12.727-16.137 19.293-27 25.5-13.035-51.523-35.676-99.781-52.125-150.38zm304.88 0c-19.863 48.418-37.496 98.023-55.5 147.38-11.484-7.4492-27.402-11.285-31.125-25.875-16.141-39.418-30.426-79.016-46.875-118.12 44.383-3.4141 88.805-3.6836 133.5-3.375zm-153.75 8.625c11.793 29.797 23.016 59.828 34.5 89.625 8.3789 21.105 13.938 45.168 32.25 60.375-49.039 8.0703-98.84 14.289-148.5 10.875 9.6211-9.3125 23.094-15.902 27.75-29.25 19.555-43.145 33.516-88.793 54-131.62zm175.88 394.88c-20.176 55.867-36.773 112.75-58.5 168-5.8984-51.523-11.535-102.6-16.5-154.12 25.141-3.4141 50.168-8.5977 75-13.875zm-375 3c29.176 4.9648 58.266 10.02 87.75 13.125-7.4492 54.316-3.207 109.18-6 163.5-5.8984-5.8984-12.027-12.051-15.75-19.5-24.832-51.215-44.582-104.67-66-157.12zm278.25 15.75c3.1055 54.008 10.848 107.24 16.125 161.25-63.008 4.0352-126.06 3.375-189.38 3.375 1.5508-54.629-5.1719-110.24 6-164.25 1.5508 4.0352 4.0742 12.531 5.625 16.875 48.73 1.2422 97.895-4.0859 146.62 1.5 1.2422-5.8984 2.8828-12.168 4.125-18.375 3.4141 0 7.1523-0.375 10.875-0.375z"/>
</svg>
